<svg width="772" height="130" viewBox="0 0 772 130" fill="none" xmlns="http://www.w3.org/2000/svg">
<path d="M42.51 15.7C54.28 15.7 62.95 22.07 65.71 32.74L66.43 35.55H81.92L80.92 31.01C76.9 12.74 61.82 0.929993 42.5 0.929993C19.16 0.929993 0.880005 19.26 0.880005 42.65C0.880005 66.05 19.16 84.38 42.5 84.38C61.82 84.38 76.9 72.57 80.92 54.29L81.92 49.75H66.43L65.71 52.56C62.94 63.23 54.27 69.6 42.51 69.6C27.45 69.6 16.1 58.01 16.1 42.65C16.1 27.29 27.46 15.7 42.51 15.7Z" fill="#1C1C1C"/>
<path d="M162.65 0.929993C139.68 0.929993 120.98 19.62 120.98 42.59C120.98 65.56 139.67 84.26 162.65 84.26C185.62 84.26 204.31 65.57 204.31 42.59C204.32 19.61 185.63 0.929993 162.65 0.929993ZM162.55 69.71C147.95 69.71 136.07 57.54 136.07 42.59C136.07 27.64 147.95 15.47 162.55 15.47C177.21 15.47 189.13 27.64 189.13 42.59C189.13 57.54 177.2 69.71 162.55 69.71Z" fill="#1C1C1C"/>
<path d="M246.67 0.899994V84.37H262.21V29.81L302.98 80.53V56.08L258.88 0.899994H246.67Z" fill="#1C1C1C"/>
<path d="M359.3 56.06L318.53 5.06V29.8L362.4 84.37H374.84V0.899994H359.3V56.06Z" fill="#1C1C1C"/>
<path d="M426.1 84.34H486.36V69.47H441.65V50.33H481.91V35.34H441.65V15.76H486.36V0.880005H426.1V84.34Z" fill="#1C1C1C"/>
<path d="M575.66 15.73C587.46 15.73 596.16 22.12 598.94 32.83L599.67 35.63H615.19L614.19 31.08C610.16 12.76 595.04 0.920013 575.67 0.920013C552.27 0.920013 533.95 19.29 533.95 42.75C533.95 66.21 552.28 84.58 575.67 84.58C595.04 84.58 610.16 72.74 614.19 54.42L615.19 49.87H599.67L598.94 52.67C596.17 63.38 587.47 69.77 575.67 69.77C560.57 69.77 549.18 58.15 549.18 42.74C549.17 27.35 560.56 15.73 575.66 15.73Z" fill="#1C1C1C"/>
<path d="M664.71 15.8H692.91V84.37H708.46V15.8H736.67V0.929993H664.71V15.8Z" fill="#1C1C1C"/>
<path d="M768.46 3.73999C766.7 1.97999 764.57 1.09 762.08 1.09C759.7 1.09 757.63 1.91001 755.87 3.54001C753.99 5.29001 753.05 7.47999 753.05 10.12C753.05 12.66 753.92 14.8 755.66 16.54C757.4 18.28 759.54 19.15 762.08 19.15C764.54 19.15 766.64 18.3 768.4 16.6C770.2 14.84 771.11 12.69 771.11 10.12C771.11 7.63 770.22 5.50999 768.46 3.73999ZM767.33 15.44C765.88 16.91 764.13 17.64 762.08 17.64C760.02 17.64 758.27 16.91 756.81 15.45C755.35 13.99 754.62 12.21 754.62 10.12C754.62 8.1 755.34 6.36001 756.77 4.89001C758.23 3.39001 760 2.64001 762.07 2.64001C764.12 2.64001 765.87 3.39001 767.34 4.89001C768.78 6.37001 769.51 8.10999 769.51 10.12C769.51 12.19 768.79 13.96 767.33 15.44Z" fill="#1C1C1C"/>
<path d="M766.17 14.57C766.16 14.47 766.15 14.37 766.15 14.28V13.39C766.15 12.37 765.86 11.62 765.27 11.15C764.95 10.9 764.48 10.7 763.85 10.57C764.54 10.5 765.11 10.27 765.58 9.89999C766.05 9.52999 766.28 8.91999 766.28 8.07999C766.28 6.97999 765.83 6.18 764.95 5.69C764.43 5.4 763.77 5.22999 762.98 5.17999C762.84 5.16999 762.15 5.17 760.92 5.16C759.68 5.16 758.75 5.14999 758.13 5.14999V15.16H760.75V11.62H761.3L761.88 11.66C762.28 11.68 762.58 11.74 762.77 11.82C763.13 11.96 763.37 12.2 763.5 12.55C763.58 12.76 763.64 13.17 763.66 13.77C763.69 14.37 763.74 14.84 763.83 15.15H766.33L766.24 14.87C766.2 14.77 766.18 14.67 766.17 14.57ZM763.19 9.44C762.85 9.68 762.37 9.81 761.76 9.81H760.74V6.91H761.38C762.03 6.91 762.54 6.98 762.9 7.12C763.44 7.33 763.71 7.71001 763.71 8.26001C763.71 8.80001 763.54 9.19 763.19 9.44Z" fill="#1C1C1C"/>
<path d="M170.96 117.59H163.47V110.28H159.4V128.75H163.47V121.33H170.96V128.75H175.02V110.28H170.96V117.59Z" fill="#1C1C1C"/>
<path d="M196.68 121.25H205.39V117.64H196.68V113.89H206.57V110.28H192.64V128.75H206.71V125.13H196.68V121.25Z" fill="#1C1C1C"/>
<path d="M229.84 110.14L221.92 128.74H226.06L227.75 124.6H235.56L237.25 128.74H241.5L233.58 110.14H229.84ZM229.21 121.02L231.66 115.03L234.11 121.02H229.21Z" fill="#1C1C1C"/>
<path d="M261.6 110.28H257.54V128.75H270.81V125.05H261.6V110.28Z" fill="#1C1C1C"/>
<path d="M283.1 114.02H288.72V128.75H292.78V114.02H298.41V110.28H283.1V114.02Z" fill="#1C1C1C"/>
<path d="M326.26 117.59H318.77V110.28H314.71V128.75H318.77V121.33H326.26V128.75H330.33V110.28H326.26V117.59Z" fill="#1C1C1C"/>
<path d="M384.17 120.41L381.19 118.77C380.61 119.9 380 120.99 379.4 121.94L376.95 119.49C379.25 118.59 380.83 117.14 380.83 114.63C380.83 111.99 378.77 109.96 375.63 109.96C372.07 109.96 370.04 112.28 370.04 114.84C370.04 116.13 370.44 117.27 371.33 118.56C369.01 119.62 367.74 121.28 367.74 123.65C367.74 126.95 370.4 129.01 373.94 129.01C376.08 129.01 377.85 128.19 379.35 126.95L381.49 129.11L384.47 127.03L381.75 124.31C382.66 123.07 383.46 121.7 384.17 120.41ZM375.54 113.13C376.57 113.13 377.28 113.76 377.28 114.87C377.28 116.06 376.44 116.74 374.83 117.35C374.06 116.48 373.75 115.87 373.75 115.03C373.75 113.89 374.46 113.13 375.54 113.13ZM374.41 125.69C372.91 125.69 371.82 124.82 371.82 123.5C371.82 122.58 372.32 121.68 373.54 121.05L377.08 124.64C376.23 125.29 375.33 125.69 374.41 125.69Z" fill="#1C1C1C"/>
<path d="M421.7 128.75H425.77V121.6H434.58V117.9H425.77V113.97H435.77V110.28H421.7V128.75Z" fill="#1C1C1C"/>
<path d="M456.45 110.28H452.39V128.75H456.45V110.28Z" fill="#1C1C1C"/>
<path d="M472.94 114.02H478.56V128.75H482.62V114.02H488.24V110.28H472.94V114.02Z" fill="#1C1C1C"/>
<path d="M516.94 121.65L508.29 110.28H504.54V128.75H508.55V117.01L517.5 128.75H520.95V110.28H516.94V121.65Z" fill="#1C1C1C"/>
<path d="M542.61 121.25H551.32V117.64H542.61V113.89H552.5V110.28H538.57V128.75H552.63V125.13H542.61V121.25Z" fill="#1C1C1C"/>
<path d="M576.93 117.69C573.74 116.87 572.95 116.48 572.95 115.26V115.21C572.95 114.31 573.77 113.6 575.32 113.6C576.87 113.6 578.49 114.29 580.12 115.42L582.23 112.36C580.36 110.86 578.06 110.01 575.37 110.01C571.6 110.01 568.91 112.23 568.91 115.58V115.63C568.91 119.3 571.31 120.33 575.03 121.28C578.12 122.07 578.75 122.6 578.75 123.63V123.68C578.75 124.76 577.75 125.42 576.08 125.42C573.97 125.42 572.23 124.55 570.56 123.18L568.16 126.06C570.38 128.04 573.2 129.02 576 129.02C579.98 129.02 582.78 126.96 582.78 123.29V123.24C582.79 120.01 580.68 118.67 576.93 117.69Z" fill="#1C1C1C"/>
<path d="M606.74 117.69C603.55 116.87 602.76 116.48 602.76 115.26V115.21C602.76 114.31 603.58 113.6 605.13 113.6C606.68 113.6 608.3 114.29 609.93 115.42L612.04 112.36C610.17 110.86 607.87 110.01 605.18 110.01C601.41 110.01 598.72 112.23 598.72 115.58V115.63C598.72 119.3 601.12 120.33 604.84 121.28C607.93 122.07 608.56 122.6 608.56 123.63V123.68C608.56 124.76 607.56 125.42 605.9 125.42C603.79 125.42 602.05 124.55 600.38 123.18L597.98 126.06C600.2 128.04 603.02 129.02 605.82 129.02C609.8 129.02 612.6 126.96 612.6 123.29V123.24C612.6 120.01 610.49 118.67 606.74 117.69Z" fill="#1C1C1C"/>
</svg>
